<svg width="180" height="53" viewBox="0 0 180 53" fill="none" xmlns="http://www.w3.org/2000/svg">
<path d="M71.0595 20.1372C71.0595 22.41 71.6838 24.2043 72.9324 25.5201C74.181 26.8358 75.8273 27.4937 77.8713 27.4937C79.9431 27.4937 81.5894 26.9003 82.8103 25.7133C84.0311 24.5263 84.7988 23.0449 85.1132 21.269L87.9573 22.4008C87.4301 24.7655 86.2786 26.6748 84.5028 28.1286C82.7363 29.5825 80.5258 30.3094 77.8713 30.3094C75.9198 30.337 74.1671 29.9045 72.6133 29.012C71.0595 28.1102 69.8618 26.8819 69.0201 25.3268C68.1785 23.7718 67.7669 22.0419 67.7854 20.1372C67.7576 18.7386 68.0027 17.409 68.5207 16.1484C69.0479 14.8786 69.76 13.7883 70.6572 12.8773C71.5543 11.9664 72.6318 11.2487 73.8897 10.7242C75.1568 10.1905 76.484 9.9375 77.8713 9.9651C79.1014 9.9651 80.2344 10.1445 81.2703 10.5034C82.3062 10.853 83.1848 11.3361 83.9062 11.9526C84.6369 12.5691 85.2473 13.273 85.7375 14.0643C86.2277 14.8464 86.5884 15.693 86.8197 16.6039L83.9756 17.8737C83.6704 16.3371 82.986 15.1087 81.9224 14.1885C80.868 13.2592 79.5176 12.7945 77.8713 12.7945C75.9013 12.7945 74.2735 13.4708 72.9879 14.8234C71.7023 16.176 71.0595 17.9473 71.0595 20.1372Z" fill="#373042"/>
<path d="M90.7053 28.3219C89.4105 26.9969 88.763 25.336 88.763 23.3393C88.763 21.3426 89.4105 19.6818 90.7053 18.3568C92.0094 17.0226 93.6696 16.3555 95.6859 16.3555C97.7021 16.3555 99.3623 17.0226 100.666 18.3568C101.971 19.6818 102.623 21.3426 102.623 23.3393C102.623 25.336 101.971 26.9969 100.666 28.3219C99.3623 29.6469 97.7021 30.3094 95.6859 30.3094C93.6696 30.3094 92.0094 29.6469 90.7053 28.3219ZM98.516 26.431C99.2652 25.6213 99.6398 24.5907 99.6398 23.3393C99.6398 22.0879 99.2652 21.0574 98.516 20.2477C97.7669 19.4379 96.8235 19.0331 95.6859 19.0331C94.5482 19.0331 93.6049 19.4379 92.8557 20.2477C92.1158 21.0574 91.7458 22.0879 91.7458 23.3393C91.7458 24.5907 92.1158 25.6213 92.8557 26.431C93.6049 27.2315 94.5482 27.6318 95.6859 27.6318C96.8235 27.6318 97.7669 27.2315 98.516 26.431Z" fill="#373042"/>
<path d="M104.316 16.6315H107.299V18.5224C107.937 17.0778 109.121 16.3555 110.851 16.3555C111.711 16.3555 112.451 16.5947 113.07 17.0732C113.69 17.5424 114.134 18.2372 114.402 19.1573C114.735 18.2372 115.239 17.5424 115.914 17.0732C116.599 16.5947 117.376 16.3555 118.245 16.3555C119.521 16.3555 120.525 16.7603 121.256 17.5701C121.996 18.3706 122.366 19.5115 122.366 20.993V30.0333H119.383V21.6417C119.383 20.8227 119.17 20.1786 118.745 19.7094C118.328 19.2401 117.783 19.0055 117.107 19.0055C116.432 19.0055 115.882 19.2401 115.457 19.7094C115.04 20.1786 114.832 20.8227 114.832 21.6417V30.0333H111.849V21.6417C111.849 20.8227 111.637 20.1786 111.211 19.7094C110.795 19.2401 110.249 19.0055 109.574 19.0055C108.881 19.0055 108.326 19.2585 107.909 19.7646C107.502 20.2707 107.299 20.9884 107.299 21.9177V30.0333H104.316V16.6315Z" fill="#373042"/>
<path d="M124.85 16.6315H127.722V19.0055C128.175 18.2141 128.832 17.5747 129.692 17.087C130.561 16.5993 131.458 16.3555 132.383 16.3555C134.196 16.3555 135.667 17.018 136.795 18.343C137.923 19.6588 138.487 21.3518 138.487 23.4221C138.487 25.474 137.9 27.1349 136.726 28.4047C135.551 29.6745 134.006 30.3094 132.092 30.3094C131.167 30.3094 130.325 30.1299 129.567 29.7711C128.808 29.403 128.23 28.8694 127.833 28.1701V35.637H124.85V16.6315ZM131.606 27.687C132.707 27.687 133.632 27.2913 134.381 26.5C135.13 25.7087 135.505 24.6827 135.505 23.4221C135.505 22.1615 135.126 21.1172 134.367 20.2891C133.609 19.4517 132.688 19.0331 131.606 19.0331C130.58 19.0331 129.673 19.4517 128.887 20.2891C128.11 21.1172 127.722 22.1615 127.722 23.4221C127.722 24.6827 128.106 25.7087 128.873 26.5C129.641 27.2913 130.552 27.687 131.606 27.687Z" fill="#373042"/>
<path d="M139.654 26.224C139.654 24.8161 140.121 23.7488 141.055 23.0219C141.999 22.2858 143.247 21.9177 144.801 21.9177C145.624 21.9177 146.42 22.0143 147.187 22.2076L148.602 22.5388V21.5589C148.602 20.6847 148.311 19.9992 147.728 19.5023C147.146 19.0055 146.396 18.757 145.481 18.757C144.602 18.757 143.876 18.9963 143.303 19.4747C142.738 19.944 142.373 20.5881 142.207 21.407L139.515 20.7031C139.82 19.3597 140.486 18.3016 141.513 17.5286C142.54 16.7465 143.862 16.3555 145.481 16.3555C147.395 16.3555 148.866 16.8201 149.893 17.7495C150.928 18.6788 151.446 19.9946 151.446 21.6969V30.0333H148.602V27.7698C148.297 28.5519 147.756 29.173 146.979 29.6331C146.211 30.0839 145.25 30.3094 144.093 30.3094C142.919 30.3094 141.883 29.9367 140.986 29.1914C140.098 28.4369 139.654 27.4477 139.654 26.224ZM148.602 24.9404V24.8023L147.52 24.5263C146.549 24.2779 145.805 24.1536 145.287 24.1536C144.51 24.1536 143.895 24.3055 143.441 24.6091C142.997 24.9036 142.775 25.3452 142.775 25.9341C142.775 26.4862 142.988 26.9325 143.414 27.2729C143.839 27.6042 144.463 27.7698 145.287 27.7698C146.276 27.7698 147.076 27.5168 147.687 27.0107C148.297 26.5046 148.602 25.8145 148.602 24.9404Z" fill="#373042"/>
<path d="M156.941 30.0333H153.959V16.6315H156.941V18.5914C157.838 17.1008 159.249 16.3555 161.173 16.3555C162.597 16.3555 163.739 16.7971 164.599 17.6805C165.46 18.5638 165.89 19.76 165.89 21.269V30.0333H162.907V22.2904C162.907 21.223 162.657 20.3903 162.158 19.7922C161.658 19.1941 160.978 18.8951 160.118 18.8951C159.193 18.8951 158.43 19.2263 157.829 19.8888C157.237 20.5513 156.941 21.4438 156.941 22.5664V30.0333Z" fill="#373042"/>
<path d="M176.878 16.6315H180L170.899 35.637H167.778L171.385 28.0596L166.071 16.6315H169.29L172.952 24.8299L176.878 16.6315Z" fill="#373042"/>
<path d="M72.4479 46.799C73.2737 46.799 73.9041 46.6135 74.3392 46.2425C74.7831 45.8627 75.0717 45.3592 75.2049 44.732L76.2837 44.9042C76.115 45.8494 75.6976 46.5737 75.0317 47.0772C74.3658 47.5807 73.5045 47.8325 72.4479 47.8325C71.1516 47.8325 70.1217 47.4217 69.3581 46.6003C68.5945 45.7699 68.2127 44.6393 68.2127 43.2083C68.2127 42.4751 68.3148 41.8214 68.519 41.2472C68.7232 40.6642 69.0073 40.174 69.3714 39.7765C69.7443 39.379 70.1927 39.0787 70.7165 38.8755C71.2404 38.6635 71.8175 38.5575 72.4479 38.5575C73.5134 38.5575 74.3747 38.8092 75.0317 39.3128C75.6976 39.8162 76.1061 40.5406 76.257 41.4857L75.1782 41.658C75.045 41.0662 74.7609 40.5759 74.3258 40.1872C73.8997 39.7897 73.2737 39.591 72.4479 39.591C71.9418 39.591 71.4935 39.6793 71.1028 39.856C70.7121 40.0327 70.388 40.28 70.1305 40.598C69.873 40.9072 69.6777 41.287 69.5445 41.7375C69.4113 42.1792 69.3447 42.6694 69.3447 43.2083C69.3447 44.2859 69.6111 45.156 70.1439 45.8185C70.6855 46.4722 71.4535 46.799 72.4479 46.799Z" fill="#8F869E"/>
<path d="M80.0786 47.8325C79.6435 47.8325 79.2351 47.7618 78.8533 47.6205C78.4804 47.4703 78.1607 47.2583 77.8944 46.9845C77.628 46.7018 77.4149 46.3529 77.2551 45.9378C77.1041 45.5226 77.0287 45.0544 77.0287 44.5332C77.0287 43.4909 77.3128 42.6871 77.881 42.1217C78.4493 41.5476 79.1818 41.2605 80.0786 41.2605C80.9665 41.2605 81.6857 41.5476 82.2362 42.1217C82.7867 42.6871 83.0619 43.4909 83.0619 44.5332C83.0619 45.5579 82.7867 46.3662 82.2362 46.958C81.6857 47.541 80.9665 47.8325 80.0786 47.8325ZM80.0786 46.8918C80.7179 46.8918 81.1973 46.6842 81.517 46.269C81.8366 45.845 81.9964 45.2664 81.9964 44.5332C81.9964 43.7913 81.8366 43.2171 81.517 42.8107C81.1973 42.4044 80.7179 42.2013 80.0786 42.2013C79.4482 42.2013 78.9598 42.4044 78.6136 42.8107C78.2673 43.2171 78.0941 43.7913 78.0941 44.5332C78.0941 45.2664 78.2717 45.845 78.6269 46.269C78.982 46.6842 79.4659 46.8918 80.0786 46.8918Z" fill="#8F869E"/>
<path d="M84.1397 47.7V41.393H85.1652V42.2145C85.3694 41.9053 85.6535 41.6712 86.0176 41.5122C86.3816 41.3444 86.7501 41.2605 87.123 41.2605C87.6557 41.2605 88.0997 41.3665 88.4548 41.5785C88.8189 41.7905 89.0808 42.0687 89.2406 42.4132C89.436 42.0334 89.7379 41.7463 90.1463 41.552C90.5547 41.3577 90.9765 41.2605 91.4115 41.2605C92.1219 41.2605 92.6901 41.4548 93.1163 41.8435C93.5425 42.2233 93.7556 42.7842 93.7556 43.5262V47.7H92.6901V43.6852C92.6901 43.2524 92.5747 42.8991 92.3438 42.6253C92.113 42.3514 91.7356 42.2145 91.2118 42.2145C90.7323 42.2145 90.3239 42.3691 89.9865 42.6782C89.6491 42.9874 89.4804 43.4026 89.4804 43.9237V47.7H88.4149V43.6852C88.4149 43.2524 88.295 42.8991 88.0553 42.6253C87.8244 42.3514 87.4471 42.2145 86.9232 42.2145C86.4438 42.2145 86.0353 42.3691 85.6979 42.6782C85.3694 42.9874 85.2051 43.4026 85.2051 43.9237V47.7H84.1397Z" fill="#8F869E"/>
<path d="M95.1435 50.2705V41.393H96.209V42.241C96.4398 41.9142 96.7506 41.6712 97.1413 41.5122C97.532 41.3444 97.9448 41.2605 98.3799 41.2605C98.7706 41.2605 99.1346 41.3312 99.472 41.4725C99.8183 41.605 100.12 41.8082 100.378 42.082C100.635 42.347 100.835 42.6827 100.977 43.089C101.128 43.4953 101.203 43.9591 101.203 44.4802C101.203 45.5226 100.928 46.3441 100.378 46.9448C99.8272 47.5366 99.1035 47.8325 98.2068 47.8325C97.7895 47.8325 97.4077 47.7618 97.0614 47.6205C96.724 47.4792 96.4398 47.276 96.209 47.011V50.2705H95.1435ZM96.209 45.0632C96.209 45.6374 96.4088 46.0879 96.8083 46.4147C97.2168 46.7327 97.6873 46.8918 98.2201 46.8918C98.8061 46.8918 99.2722 46.6753 99.6185 46.2425C99.9648 45.8097 100.138 45.2355 100.138 44.52C100.138 43.831 99.9648 43.2745 99.6185 42.8505C99.2722 42.4177 98.7972 42.2013 98.1935 42.2013C97.9448 42.2013 97.7007 42.2498 97.4609 42.347C97.2301 42.4353 97.0214 42.5678 96.835 42.7445C96.6485 42.9123 96.4976 43.1287 96.3821 43.3937C96.2667 43.6587 96.209 43.9635 96.209 44.308V45.0632Z" fill="#8F869E"/>
<path d="M106.253 47.7V46.958C106.058 47.2142 105.787 47.4262 105.441 47.594C105.104 47.753 104.708 47.8325 104.256 47.8325C103.563 47.8325 103.013 47.6647 102.604 47.329C102.205 46.9933 102.005 46.534 102.005 45.951C102.005 45.2973 102.222 44.8247 102.657 44.5332C103.101 44.2417 103.687 44.0827 104.415 44.0562C104.744 44.0474 105.05 44.0474 105.334 44.0562C105.619 44.0562 105.903 44.0607 106.187 44.0695V43.5262C106.187 43.0669 106.054 42.7312 105.787 42.5192C105.521 42.3072 105.183 42.2013 104.775 42.2013C104.322 42.2013 103.976 42.3117 103.736 42.5325C103.505 42.7533 103.337 43.0227 103.23 43.3407L102.218 43.1287C102.351 42.5723 102.635 42.1217 103.07 41.7772C103.505 41.4327 104.074 41.2605 104.775 41.2605C105.494 41.2605 106.085 41.4416 106.546 41.8037C107.017 42.1571 107.252 42.718 107.252 43.4865V47.7H106.253ZM106.187 44.9042C105.92 44.8954 105.636 44.891 105.334 44.891C105.041 44.891 104.744 44.8954 104.442 44.9042C103.989 44.9219 103.647 45.0191 103.417 45.1958C103.186 45.3724 103.07 45.6198 103.07 45.9378C103.07 46.2381 103.177 46.481 103.39 46.6665C103.612 46.8432 103.909 46.9315 104.282 46.9315C104.815 46.9315 105.263 46.8034 105.627 46.5472C106 46.2822 106.187 45.9378 106.187 45.5138V44.9042Z" fill="#8F869E"/>
<path d="M108.645 47.7V41.393H109.671V42.2675C109.875 41.9407 110.168 41.6933 110.55 41.5255C110.94 41.3488 111.34 41.2605 111.748 41.2605C112.485 41.2605 113.071 41.4548 113.506 41.8435C113.941 42.2233 114.159 42.7842 114.159 43.5262V47.7H113.093V43.6852C113.093 43.2524 112.969 42.8991 112.721 42.6253C112.481 42.3514 112.086 42.2145 111.535 42.2145C111.029 42.2145 110.598 42.3691 110.243 42.6782C109.888 42.9874 109.711 43.4026 109.711 43.9237V47.7H108.645Z" fill="#8F869E"/>
<path d="M117.992 48.6673C117.752 49.2679 117.472 49.6831 117.153 49.9128C116.833 50.1512 116.433 50.2705 115.954 50.2705H115.341V49.29H115.741C116.043 49.29 116.305 49.2238 116.527 49.0913C116.749 48.9588 116.931 48.7158 117.073 48.3625L117.352 47.6735L114.662 41.393H115.834L117.912 46.3882L119.776 41.393H120.882L117.992 48.6673Z" fill="#8F869E"/>
<path fill-rule="evenodd" clip-rule="evenodd" d="M16.0641 31.8815C15.8346 30.21 15.5478 27.6823 15.4904 26.0515C15.3429 21.5262 15.7936 15.0602 18.3672 11.13C23.9322 2.64185 35.6853 8.21908 33.9149 18.3054C32.5954 25.8069 27.3909 30.2671 22.3668 35.2654C25.0469 44.6015 28.817 27.8698 34.546 27.6905C39.48 27.5355 43.119 38.7389 36.6196 45.2702C37.2261 40.7529 36.1934 34.1891 34.3001 34.0097C32.538 33.8385 23.6454 54.7042 17.6623 38.3965C15.2937 39.7908 10.1056 41.5357 5.31919 42.3918C10.1794 48.8334 17.9164 53 26.6369 53C41.3487 53 53.2738 41.1362 53.2738 26.5C53.2738 11.8638 41.3487 0 26.6369 0C11.9251 0 0 11.8638 0 26.5C0 31.3189 1.29496 35.8362 3.54886 39.7255L0.729441 42.2695C1.80311 41.9108 2.98333 41.4134 4.22092 40.81C10.1958 37.9154 17.5394 32.6398 21.2112 28.9951C24.2601 25.9618 27.7598 21.6892 28.5138 17.384C29.3498 12.6058 24.2847 9.93139 22.1947 15.688C21.2194 18.3951 20.8424 22.1051 20.9653 25.8722C20.9653 25.9455 21.121 28.2205 21.0718 27.6578C19.5474 29.2315 17.8672 30.6503 16.0641 31.8815Z" fill="#7557FF"/>
</svg>
